<?xml version="1.0" encoding="UTF-8"?>
<svg xmlns="http://www.w3.org/2000/svg" width="1200" height="675" viewBox="0 0 1200 675" preserveAspectRatio="xMidYMid slice">
  <defs>
    <linearGradient id="g1" x1="0" x2="1" y1="0" y2="1">
      <stop offset="0%" stop-color="#0f172a" />
      <stop offset="60%" stop-color="#0b1220" />
      <stop offset="100%" stop-color="#543d2f" />
    </linearGradient>
    <linearGradient id="g2" x1="0" x2="1">
      <stop offset="0%" stop-color="#ffd27f" stop-opacity="0.95"/>
      <stop offset="100%" stop-color="#ff8a4c" stop-opacity="0.9"/>
    </linearGradient>
  </defs>

  <rect width="100%" height="100%" fill="url(#g1)" />

  <!-- subtle horizon -->
  <g transform="translate(0,360)">
    <ellipse cx="600" cy="240" rx="900" ry="140" fill="rgba(0,0,0,0.22)" />
  </g>

  <!-- stylized cowboy hat silhouette -->
  <g transform="translate(300,160) scale(1.2)">
    <path d="M90 120 C 30 120 10 100 0 80 C 20 70 70 60 110 58 C 150 60 200 70 220 80 C 210 100 190 120 130 120 C 120 140 60 140 90 120 Z"
      fill="url(#g2)" opacity="0.98" />
    <ellipse cx="110" cy="132" rx="92" ry="18" fill="#6b4b3a" opacity="0.28"/>
  </g>

  <!-- title -->
  <g transform="translate(80,460)">
    <text x="0" y="0" font-family="Inter, Arial, sans-serif" font-size="64" font-weight="700" fill="#fff">
      Cowboy
    </text>
    <text x="0" y="72" font-family="Inter, Arial, sans-serif" font-size="48" font-weight="600" fill="#ffd27f">
      2050
    </text>
    <text x="0" y="130" font-family="Inter, Arial, sans-serif" font-size="14" fill="#e6e6e6">
      Brand & Operational UX — demo placeholder
    </text>
  </g>

</svg>
